<?xml version="1.0" encoding="iso-8859-1"?>
<svg version="1.1" id="Layer_1" xmlns="http://www.w3.org/2000/svg" xmlns:xlink="http://www.w3.org/1999/xlink" x="0px" y="0px"
	 width="234px" height="40px" viewBox="0 0 234 40" enable-background="new 0 0 234 40" xml:space="preserve">
<path fill="#445158" d="M19.3,21l-2.9,2.9c0.2,0.3,0.4,0.7,0.5,1.1h-2.1c-0.3-0.6-1-1-1.7-1c-1.1,0-2,0.9-2,2s0.9,2,2,2
	c0.7,0,1.4-0.4,1.7-1h2.1c-0.4,1.7-2,3-3.9,3c-0.8,0-1.6-0.3-2.2-0.7l-1.4,1.4c1,0.8,2.3,1.3,3.7,1.3c0.7,0,1.3-0.1,1.9-0.3l1.5,1.5
	c-1,0.5-2.2,0.8-3.4,0.8c-2.5,0-4.8-1.2-6.3-3l2.9-2.9C9.2,27.5,9,26.8,9,26c0-2.2,1.8-4,4-4c0.8,0,1.6,0.3,2.2,0.7l1.4-1.4
	c-1-0.8-2.3-1.3-3.7-1.3c-0.7,0-1.3,0.1-1.9,0.3l-1.5-1.5c1-0.5,2.2-0.8,3.4-0.8C15.5,18,17.8,19.2,19.3,21z M16.3,14.5V4h2V2h-4
	v14.1c4.9,0.7,8.7,4.8,8.7,9.9c0,2.5-0.9,4.8-2.4,6.5l-1.4-1.4c1.1-1.4,1.8-3.2,1.8-5.1c0-1.2-0.3-2.4-0.8-3.4l-1.5,1.5
	c0.2,0.6,0.3,1.2,0.3,1.9c0,2-1,3.7-2.4,4.8l2.9,2.9c-1.7,1.5-4,2.3-6.4,2.3C7.5,36,3,31.5,3,26c0-2.5,0.9-4.8,2.4-6.5l1.4,1.4
	C5.7,22.3,5,24.1,5,26c0,1.2,0.3,2.4,0.8,3.4l1.5-1.5C7.1,27.3,7,26.7,7,26c0-2,1-3.7,2.4-4.8l-2.9-2.9c1.4-1.2,3.2-2,5.1-2.2V2h-4
	v2h2v10.5C4.7,15.9,1,20.5,1,26c0,6.6,5.4,12,12,12s12-5.4,12-12C25,20.5,21.3,15.9,16.3,14.5z M48.4,7.2c-0.1,0-0.2,0-0.3,0
	c-8.4,0-13.7,5.8-13.7,13s5.2,13,13.7,13c0.1,0,0.2,0,0.3,0l0,0c2.7-0.1,5.2-0.8,7.3-1.9v-3.6c-2,1.3-4.5,2.2-7.3,2.2l0,0
	c-0.1,0-0.2,0-0.3,0c-6.2,0-9.7-4.3-9.7-9.7s3.4-9.7,9.7-9.7c0.1,0,0.2,0,0.3,0l0,0c2.8,0.1,5.3,0.9,7.3,2.2V9.1
	C53.6,8,51.1,7.3,48.4,7.2L48.4,7.2z M70.3,11.9c-2.6,0-4.8,1-6.3,2.6v-7h-4v25.3h4v-12c0-3.3,2.1-5.7,5.3-5.7s4.7,2.1,4.7,5.3v12.3
	h4V20C78,14.6,74.6,11.9,70.3,11.9z M92.7,11.9c-7,0-10.7,4.8-10.7,10.7c0,7.1,4.6,10.7,12.3,10.7c2.9,0,5.5-0.7,7-1.8V28
	c-1.2,1.2-3.9,2-7,2c-4.6,0-7.9-1.8-8.3-6.3h16.6c0-0.3,0-0.7,0-1C102.7,15.8,98.9,11.9,92.7,11.9z M86.2,20.2c0.6-2.9,2.6-5,6.4-5
	c3.3,0,5.2,1.6,5.8,5H86.2z M131.3,11.9c-3.2,0-5.9,1.5-7.3,3.9c-1.3-2.6-3.8-3.9-6.7-3.9c-2.6,0-4.8,1-6.3,2.6v-2.3h-4v20.7h4v-12
	c0-3.3,2.1-5.7,5.3-5.7c3.3,0,4.7,2.1,4.7,5.3v12.3h4v-12c0-3.3,2.1-5.7,5.3-5.7c3.3,0,4.7,2.1,4.7,5.3v12.3h4V20.2
	C139,14.6,135.6,11.9,131.3,11.9z M182.6,12.2l-5.6,7.4l-5.6-7.4h-4.3l7.8,10.3l-7.5,10l-11.1-25h-0.1h-3.8h-0.1L141,32.9h3.8
	l3.3-7.3h12.2l3.3,7.3h3.5h0.3h4l5.6-7.4l5.6,7.4h4.3l-7.8-10.3l7.8-10.3h-4.3V12.2z M149.6,22.2l4.6-10.4l4.6,10.4H149.6z
	 M199.7,11.9c-6.1,0-11,4.8-11,10.7s4.9,10.7,11,10.7s11-4.8,11-10.7S205.7,11.9,199.7,11.9z M199.7,29.9c-3.9,0-7-3.3-7-7.3
	s3.1-7.3,7-7.3s7,3.3,7,7.3S203.5,29.9,199.7,29.9z M233,32.9V20.2c0-5.6-3.4-8.3-7.7-8.3c-2.6,0-4.8,1-6.3,2.6v-2.3h-4v20.7h4v-12
	c0-3.3,2.1-5.7,5.3-5.7c3.3,0,4.7,2.1,4.7,5.3v12.3L233,32.9L233,32.9z"/>
</svg>
